<?xml version="1.0" encoding="iso-8859-1"?>
<!-- Generator: Adobe Illustrator 19.0.0, SVG Export Plug-In . SVG Version: 6.00 Build 0)  -->
<svg version="1.1" id="Capa_1" xmlns="http://www.w3.org/2000/svg" xmlns:xlink="http://www.w3.org/1999/xlink" x="0px" y="0px"
	 viewBox="0 0 509.654 509.654" style="enable-background:new 0 0 509.654 509.654;" xml:space="preserve">
<g>
	<g>
		<path d="M346.512,335.998h-88v-24.312c53.671-4.141,95.937-48.97,96-103.688c0-106.096-94.328-201.6-98.344-205.656
			c-3.124-3.123-8.188-3.123-11.312,0c-4.016,4.056-98.344,99.56-98.344,205.656c0.063,54.718,42.329,99.547,96,103.688v24.312h-96
			c-2.122,0-4.156,0.844-5.656,2.344l-96,96l11.312,11.312l93.656-93.656h187.888c-1.664,9.496-6.888,24-23.2,24h-88v16h88
			c31.64,0,40-31.4,40-48C354.512,339.58,350.93,335.998,346.512,335.998z M242.512,132.686l-10.344-10.344
			c-1.5-1.5-3.534-2.344-5.656-2.344h-24v16H223.2l19.312,19.312v33.376l-10.344-10.344c-1.5-1.5-3.534-2.344-5.656-2.344h-24v16
			H223.2l19.312,19.312v33.376l-10.344-10.344c-1.5-1.5-3.534-2.344-5.656-2.344h-24v16H223.2l19.312,19.312v28.322
			c-44.851-4.042-80-41.73-80-87.634c0-84.952,67.728-165.968,88-188.304c20.272,22.336,88,103.352,88,188.304
			c0,45.904-35.149,83.591-80,87.634V267.31l19.312-19.312h20.688v-16h-24c-2.122,0-4.156,0.844-5.656,2.344l-10.344,10.344V211.31
			l19.312-19.312h20.688v-16h-24c-2.122,0-4.156,0.844-5.656,2.344l-10.344,10.344V155.31l19.312-19.312h20.688v-16h-24
			c-2.122,0-4.156,0.844-5.656,2.344l-10.344,10.344v-28.688h-16V132.686z"/>
	</g>
</g>
<g>
	<g>
		<path d="M448.168,282.342c-3.124-3.123-8.188-3.123-11.312,0l-72,72l11.312,11.312l65.712-65.712
			c10.828,14.37,8.629,34.68-5.024,46.4L343.2,439.998H178.512c-2.122,0-4.156,0.844-5.656,2.344l-56,56l11.312,11.312
			l53.656-53.656h164.688c2.122,0,4.156-0.844,5.656-2.344l96-96C477.96,327.862,461.192,295.366,448.168,282.342z"/>
	</g>
</g>
<g>
	<g>
		<rect x="242.51" y="71.998" width="16" height="16"/>
	</g>
</g>
<g>
</g>
<g>
</g>
<g>
</g>
<g>
</g>
<g>
</g>
<g>
</g>
<g>
</g>
<g>
</g>
<g>
</g>
<g>
</g>
<g>
</g>
<g>
</g>
<g>
</g>
<g>
</g>
<g>
</g>
</svg>
