<?xml version="1.0" encoding="iso-8859-1"?>
<!-- Generator: Adobe Illustrator 19.0.0, SVG Export Plug-In . SVG Version: 6.00 Build 0)  -->
<svg version="1.1" id="Capa_1" xmlns="http://www.w3.org/2000/svg" xmlns:xlink="http://www.w3.org/1999/xlink" x="0px" y="0px"
	 viewBox="0 0 512 512" style="enable-background:new 0 0 512 512;" xml:space="preserve">
<g>
	<g>
		<path d="M496,0H16C7.152,0,0,7.168,0,16v384c0,8.832,7.152,16,16,16h160v64h-48v32h256v-32h-48v-64h160c8.848,0,16-7.168,16-16V16
			C512,7.168,504.848,0,496,0z M304,480h-96v-64h96V480z M480,384H32v-64h448V384z M480,288H32V32h448V288z"/>
	</g>
</g>
<g>
	<g>
		<path d="M144,64H80c-8.848,0-16,7.168-16,16v64c0,8.832,7.152,16,16,16h64c8.848,0,16-7.168,16-16V80
			C160,71.168,152.848,64,144,64z M128,128H96V96h32V128z"/>
	</g>
</g>
<g>
	<g>
		<path d="M144,176H80c-8.848,0-16,7.168-16,16v64c0,8.832,7.152,16,16,16h64c8.848,0,16-7.168,16-16v-64
			C160,183.168,152.848,176,144,176z M128,240H96v-32h32V240z"/>
	</g>
</g>
<g>
	<g>
		<rect x="192" y="64" width="128" height="32"/>
	</g>
</g>
<g>
	<g>
		<rect x="192" y="176" width="128" height="32"/>
	</g>
</g>
<g>
	<g>
		<rect x="192" y="224" width="256" height="32"/>
	</g>
</g>
<g>
	<g>
		<rect x="192" y="112" width="256" height="32"/>
	</g>
</g>
<g>
</g>
<g>
</g>
<g>
</g>
<g>
</g>
<g>
</g>
<g>
</g>
<g>
</g>
<g>
</g>
<g>
</g>
<g>
</g>
<g>
</g>
<g>
</g>
<g>
</g>
<g>
</g>
<g>
</g>
</svg>
