<svg height="512pt" viewBox="0 0 512 512" width="512pt" xmlns="http://www.w3.org/2000/svg"><path d="m512 210v-210h-512v210h52.867188l39.132812 48.074219c-34.453125 1.574219-62 30.089843-62 64.925781 0 13.613281 4.214844 26.253906 11.394531 36.707031-23.769531 6.070313-41.394531 27.660157-41.394531 53.292969v99h512v-99c0-25.632812-17.625-47.222656-41.394531-53.292969 7.179687-10.453125 11.394531-23.09375 11.394531-36.707031 0-34.835938-27.546875-63.351562-62-64.925781l39.132812-48.074219zm-195-60h5v30h-38.132812l-27.867188 34.238281-27.867188-34.238281h-38.132812v-60h-35c-8.269531 0-15-6.730469-15-15s6.730469-15 15-15h35v-60h132v30h-5c-24.8125 0-45 20.1875-45 45s20.1875 45 45 45zm35 173c0 13.613281 4.214844 26.253906 11.394531 36.707031-10.253906 2.617188-19.351562 8.132813-26.394531 15.601563-7.238281-7.679688-16.652344-13.277344-27.253906-15.800782 7.097656-10.414062 11.253906-22.984374 11.253906-36.507812 0-34.835938-27.546875-63.351562-62-64.925781l39.132812-48.074219h76.734376l39.132812 48.074219c-34.453125 1.574219-62 30.089843-62 64.925781zm-177 52.308594c-7.042969-7.46875-16.144531-12.984375-26.394531-15.601563 7.179687-10.453125 11.394531-23.09375 11.394531-36.707031 0-34.835938-27.546875-63.351562-62-64.925781l39.132812-48.074219h76.734376l39.132812 48.074219c-34.453125 1.574219-62 30.089843-62 64.925781 0 13.523438 4.15625 26.09375 11.253906 36.507812-10.601562 2.527344-20.015625 8.125-27.253906 15.800782zm46-52.308594c0-19.300781 15.699219-35 35-35s35 15.699219 35 35-15.699219 35-35 35-35-15.699219-35-35zm-191-143v-150h130v30h-5c-24.8125 0-45 20.1875-45 45s20.1875 45 45 45h5v30h-37.132812l-27.867188 34.238281-27.867188-34.238281zm65 108c19.300781 0 35 15.699219 35 35s-15.699219 35-35 35-35-15.699219-35-35 15.699219-35 35-35zm65 194h-130v-69c0-13.785156 11.214844-25 25-25h80c13.785156 0 25 11.214844 25 25zm162 0h-132v-69c0-13.785156 11.214844-25 25-25h82c13.785156 0 25 11.214844 25 25zm160-69v69h-130v-69c0-13.785156 11.214844-25 25-25h80c13.785156 0 25 11.214844 25 25zm-30-90c0 19.300781-15.699219 35-35 35s-35-15.699219-35-35 15.699219-35 35-35 35 15.699219 35 35zm-35-108.761719-27.867188-34.238281h-37.132812v-60h-35c-8.269531 0-15-6.730469-15-15s6.730469-15 15-15h35v-60h130v150h-37.132812zm0 0"/></svg>