<svg height="496pt" viewBox="0 0 496 496" width="496pt" xmlns="http://www.w3.org/2000/svg"><path d="m496 414.207031v-60.421875l-23.144531-5.914062c-.160157-.390625-.320313-.78125-.488281-1.167969l12.183593-20.535156-20.550781-20.558594v-305.609375h-400v96h-64v368h305.609375l20.558594 20.550781 20.535156-12.175781c.394531.167969.785156.328125 1.167969.488281l5.914062 23.136719h60.429688l5.90625-23.144531c.390625-.160157.78125-.320313 1.167968-.488281l20.535157 12.175781 42.726562-42.71875-12.183593-20.535157c.167968-.394531.328124-.785156.488281-1.167968zm-48-398.207031v48h-368v-48zm-368 64h368v209.617188l-6.167969-6.167969-20.535156 12.175781c-.394531-.167969-.785156-.328125-1.167969-.488281l-5.914062-23.136719h-14.214844v-176h-320zm304 32v48h-368v-48zm-368 336v-272h368v96h-30.214844l-5.90625 23.144531c-.390625.160157-.78125.320313-1.167968.488281l-20.535157-12.175781-42.726562 42.71875 12.183593 20.535157c-.167968.394531-.328124.785156-.488281 1.167968l-23.144531 5.914063v60.421875l23.144531 5.914062c.160157.390625.320313.78125.488281 1.167969l-12.183593 20.535156 6.160156 6.167969zm448.457031-8.695312-25.152343 25.160156-17.105469-10.152344-3.855469 1.839844c-2.472656 1.175781-5.007812 2.238281-7.617188 3.160156l-4.03125 1.421875-4.910156 19.265625h-35.570312l-4.910156-19.265625-4.03125-1.421875c-2.609376-.914062-5.144532-1.976562-7.617188-3.160156l-3.855469-1.839844-17.105469 10.152344-25.152343-25.160156 10.144531-17.097657-1.839844-3.847656c-1.183594-2.488281-2.238281-5.03125-3.167968-7.640625l-1.421876-4.015625-19.257812-4.910156v-35.578125l19.246094-4.910156 1.425781-4.023438c.929687-2.609375 1.984375-5.152344 3.167969-7.632812l1.839844-3.847657-10.144532-17.097656 25.152344-25.160156 17.105469 10.152343 3.855469-1.839843c2.472656-1.175781 5.007812-2.238281 7.617187-3.160157l4.03125-1.421874 4.917969-19.273438h35.570312l4.910156 19.265625 4.03125 1.421875c2.609376.914062 5.144532 1.976562 7.617188 3.160156l3.855469 1.839844 17.105469-10.152344 25.152343 25.160156-10.144531 17.097657 1.839844 3.847656c1.183594 2.488281 2.238281 5.023437 3.167968 7.632813l1.421876 4.023437 19.257812 4.910156v35.578125l-19.246094 4.910156-1.425781 4.015626c-.9375 2.609374-1.992187 5.160156-3.167969 7.640624l-1.839844 3.847657zm0 0"/><path d="m384 320c-35.289062 0-64 28.710938-64 64s28.710938 64 64 64 64-28.710938 64-64-28.710938-64-64-64zm0 112c-26.472656 0-48-21.527344-48-48s21.527344-48 48-48 48 21.527344 48 48-21.527344 48-48 48zm0 0"/><path d="m384 352c-17.648438 0-32 14.351562-32 32s14.351562 32 32 32 32-14.351562 32-32-14.351562-32-32-32zm0 48c-8.824219 0-16-7.175781-16-16s7.175781-16 16-16 16 7.175781 16 16-7.175781 16-16 16zm0 0"/><path d="m32 128h16v16h-16zm0 0"/><path d="m64 128h16v16h-16zm0 0"/><path d="m96 128h16v16h-16zm0 0"/><path d="m96 32h16v16h-16zm0 0"/><path d="m128 32h16v16h-16zm0 0"/><path d="m160 32h16v16h-16zm0 0"/><path d="m32 336h192v-144h-192zm16-128h160v112h-160zm0 0"/><path d="m32 352h192v16h-192zm0 0"/><path d="m32 384h16v16h-16zm0 0"/><path d="m64 384h160v16h-160zm0 0"/><path d="m208 416h16v16h-16zm0 0"/><path d="m32 416h160v16h-160zm0 0"/></svg>